<?xml version="1.0" encoding="utf-8"?>
<!-- Generator: Adobe Illustrator 21.1.0, SVG Export Plug-In . SVG Version: 6.00 Build 0)  -->
<svg version="1.1" id="Capa_1" xmlns="http://www.w3.org/2000/svg" xmlns:xlink="http://www.w3.org/1999/xlink" x="0px" y="0px"
	 viewBox="0 0 76.3 76.3" style="enable-background:new 0 0 76.3 76.3;" xml:space="preserve">
<style type="text/css">
	.st0{fill:#FFFFFF;}
</style>
<g>
	<path class="st0" d="M66.8,16.7v42.9c0,2.6-2.1,4.8-4.8,4.8v4.8c0,2.6-2.1,4.8-4.8,4.8h-4.8c-2.6,0-4.8-2.1-4.8-4.8v-4.8H28.6v4.8
		c0,2.6-2.1,4.8-4.8,4.8h-4.8c-2.6,0-4.8-2.1-4.8-4.8v-4.8c-2.6,0-4.8-2.1-4.8-4.8V16.7C9.5,8.8,16,2.4,23.9,2.4h28.6
		C60.4,2.4,66.8,8.8,66.8,16.7z M28.6,11.9h19.1V7.2H28.6V11.9z M23.9,54.9c0-2.6-2.1-4.8-4.8-4.8c-2.6,0-4.8,2.1-4.8,4.8
		c0,2.6,2.1,4.8,4.8,4.8C21.7,59.6,23.9,57.5,23.9,54.9z M62,54.9c0-2.6-2.1-4.8-4.8-4.8s-4.8,2.1-4.8,4.8c0,2.6,2.1,4.8,4.8,4.8
		C59.9,59.6,62,57.5,62,54.9z M62,16.7H14.3v28.6H62V16.7L62,16.7z"/>
</g>
</svg>
