<?xml version="1.0" encoding="utf-8"?>
<!-- Generator: Adobe Illustrator 21.1.0, SVG Export Plug-In . SVG Version: 6.00 Build 0)  -->
<svg version="1.1" id="Capa_1" xmlns="http://www.w3.org/2000/svg" xmlns:xlink="http://www.w3.org/1999/xlink" x="0px" y="0px"
	 viewBox="0 0 612 612" style="enable-background:new 0 0 612 612;" xml:space="preserve">
<style type="text/css">
	.st0{fill:#AFAFAF;}
</style>
<g>
	<path class="st0" d="M199.9,36.5c0-20.1,16.3-36.5,36.5-36.5c16.8,0,30.7,11.4,35,26.8c0.5,0,1-0.1,1.5-0.1
		c15.1,0,27.4,12.3,27.4,27.4c0,3.7-0.8,7.2-2.1,10.4l0,0c9.4,0,17,7.6,17,17c0,9.4-7.6,17-17,17c-9.4,0-17-7.6-17-17
		c0-0.5,0.1-1,0.1-1.5c-2.7,0.9-5.5,1.5-8.5,1.5c-9.2,0-17.2-4.5-22.2-11.4c-4.4,1.9-9.2,2.9-14.3,2.9
		C216.3,72.9,199.9,56.6,199.9,36.5z M216.5,217.1h-49.9c-8.8,0-15.9,7.1-15.9,15.9v106.2L306,264.8l155.3,74.4V232.9
		c0-8.8-7.1-15.9-15.9-15.9h-49.9 M395.5,201.2v-9.7c0-8.8-7.1-15.9-15.9-15.9h-38.5l-6.9-63.1h-56.5l-6.9,63.1h-38.5
		c-8.8,0-15.9,7.1-15.9,15.9v9.7H395.5z M306,282.3L75.2,392.9l68.3,199.3c31.7-14.8,72.5-28.5,114.3-28.5c67.2,0,121.1,32,192,48.3
		h11.8l75.1-219.1L306,282.3z"/>
</g>
</svg>
