<?xml version="1.0" encoding="utf-8"?>
<!-- Generator: Adobe Illustrator 21.1.0, SVG Export Plug-In . SVG Version: 6.00 Build 0)  -->
<svg version="1.1" id="Drop" xmlns="http://www.w3.org/2000/svg" xmlns:xlink="http://www.w3.org/1999/xlink" x="0px" y="0px"
	 viewBox="0 0 20 20" style="enable-background:new 0 0 20 20;" xml:space="preserve">
<style type="text/css">
	.st0{fill:#AFAFAF;}
</style>
<path class="st0" d="M10.2,0.6c0-0.2-0.4-0.2-0.4,0C8.9,7.7,4.4,9.1,4.4,14.1c0,3.1,2.6,5.5,5.6,5.5c3,0,5.6-2.5,5.6-5.5
	C15.6,9.1,11.1,7.7,10.2,0.6z M9.4,8.4C9.3,8.6,9.2,8.9,9.2,9.1c-0.4,1.4-0.9,3-0.9,4.9c0,1-0.6,1.4-1.2,1.4c-0.6,0-1.2-0.5-1.2-1.2
	c0-2.2,1.1-3.6,2-4.9c0.3-0.4,0.6-0.8,0.8-1.1C8.9,8,9.2,8,9.3,8.1C9.4,8.2,9.4,8.3,9.4,8.4z"/>
</svg>
